<mxfile host="app.diagrams.net" agent="Mozilla/5.0 (Windows NT 10.0; Win64; x64) AppleWebKit/537.36 (KHTML, like Gecko) Chrome/139.0.0.0 Safari/537.36 Edg/139.0.0.0" version="28.0.9">
  <diagram name="Page-1" id="Op1lDlvMQwTL3rsVzWHy">
    <mxGraphModel dx="8740" dy="5952" grid="1" gridSize="10" guides="1" tooltips="1" connect="1" arrows="1" fold="1" page="1" pageScale="1" pageWidth="583" pageHeight="827" math="0" shadow="0">
      <root>
        <mxCell id="0" />
        <mxCell id="1" parent="0" />
        <mxCell id="O_iQdXaLC-N60R_olhnX-1" value="User / System" style="swimlane;fontStyle=1;startSize=25;horizontal=0;" vertex="1" parent="1">
          <mxGeometry x="40" y="40" width="2100" height="120" as="geometry" />
        </mxCell>
        <mxCell id="O_iQdXaLC-N60R_olhnX-2" value="User Interface (UI)" style="swimlane;fontStyle=1;startSize=25;horizontal=0;" vertex="1" parent="1">
          <mxGeometry x="40" y="160" width="2100" height="120" as="geometry" />
        </mxCell>
        <mxCell id="O_iQdXaLC-N60R_olhnX-3" value="AI Recommendation System" style="swimlane;fontStyle=1;startSize=25;horizontal=0;" vertex="1" parent="1">
          <mxGeometry x="40" y="280" width="2100" height="280" as="geometry" />
        </mxCell>
        <mxCell id="O_iQdXaLC-N60R_olhnX-4" value="User Profile DB" style="swimlane;fontStyle=1;startSize=25;horizontal=0;" vertex="1" parent="1">
          <mxGeometry x="40" y="560" width="2100" height="150" as="geometry" />
        </mxCell>
        <mxCell id="O_iQdXaLC-N60R_olhnX-5" value="POI Knowledge Base" style="swimlane;fontStyle=1;startSize=25;horizontal=0;" vertex="1" parent="1">
          <mxGeometry x="40" y="710" width="2100" height="150" as="geometry" />
        </mxCell>
        <mxCell id="O_iQdXaLC-N60R_olhnX-6" value="LLM" style="swimlane;fontStyle=1;startSize=25;horizontal=0;" vertex="1" parent="1">
          <mxGeometry x="40" y="860" width="2100" height="150" as="geometry" />
        </mxCell>
        <mxCell id="O_iQdXaLC-N60R_olhnX-7" style="ellipse;whiteSpace=wrap;html=1;aspect=fixed;fillColor=#000000;" vertex="1" parent="1">
          <mxGeometry x="80" y="85" width="30" height="30" as="geometry" />
        </mxCell>
        <mxCell id="O_iQdXaLC-N60R_olhnX-8" value="Trigger Activated&lt;br&gt;(Active: User Query, or&lt;br&gt;Passive: System Event)" style="rounded=1;whiteSpace=wrap;html=1;" vertex="1" parent="1">
          <mxGeometry x="160" y="70" width="180" height="60" as="geometry" />
        </mxCell>
        <mxCell id="O_iQdXaLC-N60R_olhnX-9" value="Sends request to AI System&lt;br&gt;(with query and/or User ID)" style="rounded=1;whiteSpace=wrap;html=1;" vertex="1" parent="1">
          <mxGeometry x="160" y="200" width="180" height="60" as="geometry" />
        </mxCell>
        <mxCell id="O_iQdXaLC-N60R_olhnX-10" value="User ID exists?" style="rhombus;whiteSpace=wrap;html=1;" vertex="1" parent="1">
          <mxGeometry x="200" y="380" width="120" height="80" as="geometry" />
        </mxCell>
        <mxCell id="O_iQdXaLC-N60R_olhnX-11" value="Sends User ID to Profile DB" style="rounded=1;whiteSpace=wrap;html=1;" vertex="1" parent="1">
          <mxGeometry x="180" y="490" width="160" height="50" as="geometry" />
        </mxCell>
        <mxCell id="O_iQdXaLC-N60R_olhnX-12" value="Retrieve user profile" style="rounded=1;whiteSpace=wrap;html=1;" vertex="1" parent="1">
          <mxGeometry x="180" y="620" width="160" height="50" as="geometry" />
        </mxCell>
        <mxCell id="O_iQdXaLC-N60R_olhnX-13" value="Profile found?" style="rhombus;whiteSpace=wrap;html=1;" vertex="1" parent="1">
          <mxGeometry x="400" y="605" width="120" height="80" as="geometry" />
        </mxCell>
        <mxCell id="O_iQdXaLC-N60R_olhnX-14" value="Sends profile to AI System" style="rounded=1;whiteSpace=wrap;html=1;" vertex="1" parent="1">
          <mxGeometry x="580" y="580" width="160" height="50" as="geometry" />
        </mxCell>
        <mxCell id="O_iQdXaLC-N60R_olhnX-15" value="Sends &#39;not found&#39; to AI System" style="rounded=1;whiteSpace=wrap;html=1;" vertex="1" parent="1">
          <mxGeometry x="580" y="650" width="160" height="50" as="geometry" />
        </mxCell>
        <mxCell id="O_iQdXaLC-N60R_olhnX-16" style="shape=line;strokeWidth=4;direction=south;rotation=90;" vertex="1" parent="1">
          <mxGeometry x="800" y="400" width="80" height="10" as="geometry" />
        </mxCell>
        <mxCell id="O_iQdXaLC-N60R_olhnX-17" value="Phase 1: Retrieval&lt;br&gt;Create combined internal query" style="rounded=1;whiteSpace=wrap;html=1;" vertex="1" parent="1">
          <mxGeometry x="920" y="390" width="180" height="60" as="geometry" />
        </mxCell>
        <mxCell id="O_iQdXaLC-N60R_olhnX-18" value="Sends search request to POI KB" style="rounded=1;whiteSpace=wrap;html=1;" vertex="1" parent="1">
          <mxGeometry x="920" y="480" width="180" height="50" as="geometry" />
        </mxCell>
        <mxCell id="O_iQdXaLC-N60R_olhnX-19" value="Performs vector/semantic search" style="rounded=1;whiteSpace=wrap;html=1;" vertex="1" parent="1">
          <mxGeometry x="920" y="770" width="180" height="50" as="geometry" />
        </mxCell>
        <mxCell id="O_iQdXaLC-N60R_olhnX-20" value="Results &gt; 0?" style="rhombus;whiteSpace=wrap;html=1;" vertex="1" parent="1">
          <mxGeometry x="1160" y="755" width="120" height="80" as="geometry" />
        </mxCell>
        <mxCell id="O_iQdXaLC-N60R_olhnX-21" value="Returns list of relevant POIs" style="rounded=1;whiteSpace=wrap;html=1;" vertex="1" parent="1">
          <mxGeometry x="1140" y="630" width="160" height="50" as="geometry" />
        </mxCell>
        <mxCell id="O_iQdXaLC-N60R_olhnX-22" value="Phase 2: Augmentation &amp; Generation&lt;br&gt;Create detailed prompt for LLM" style="rounded=1;whiteSpace=wrap;html=1;" vertex="1" parent="1">
          <mxGeometry x="1140" y="390" width="180" height="60" as="geometry" />
        </mxCell>
        <mxCell id="O_iQdXaLC-N60R_olhnX-23" value="Sends prompt to LLM" style="rounded=1;whiteSpace=wrap;html=1;" vertex="1" parent="1">
          <mxGeometry x="1140" y="480" width="180" height="50" as="geometry" />
        </mxCell>
        <mxCell id="O_iQdXaLC-N60R_olhnX-24" value="Generates personalized itinerary suggestion" style="rounded=1;whiteSpace=wrap;html=1;" vertex="1" parent="1">
          <mxGeometry x="1140" y="920" width="180" height="50" as="geometry" />
        </mxCell>
        <mxCell id="O_iQdXaLC-N60R_olhnX-25" value="LLM response valid?" style="rhombus;whiteSpace=wrap;html=1;" vertex="1" parent="1">
          <mxGeometry x="1380" y="905" width="120" height="80" as="geometry" />
        </mxCell>
        <mxCell id="O_iQdXaLC-N60R_olhnX-26" value="Returns result to AI System" style="rounded=1;whiteSpace=wrap;html=1;" vertex="1" parent="1">
          <mxGeometry x="1360" y="800" width="160" height="50" as="geometry" />
        </mxCell>
        <mxCell id="O_iQdXaLC-N60R_olhnX-27" value="Post-process results&lt;br&gt;(add images, CTAs, format)" style="rounded=1;whiteSpace=wrap;html=1;" vertex="1" parent="1">
          <mxGeometry x="1560" y="390" width="180" height="60" as="geometry" />
        </mxCell>
        <mxCell id="O_iQdXaLC-N60R_olhnX-28" value="Sends final result to UI" style="rounded=1;whiteSpace=wrap;html=1;" vertex="1" parent="1">
          <mxGeometry x="1560" y="290" width="180" height="50" as="geometry" />
        </mxCell>
        <mxCell id="O_iQdXaLC-N60R_olhnX-29" value="Displays recommendation to User" style="rounded=1;whiteSpace=wrap;html=1;" vertex="1" parent="1">
          <mxGeometry x="1560" y="200" width="180" height="50" as="geometry" />
        </mxCell>
        <mxCell id="O_iQdXaLC-N60R_olhnX-30" style="ellipse;whiteSpace=wrap;html=1;aspect=fixed;strokeWidth=3;" vertex="1" parent="1">
          <mxGeometry x="1635" y="85" width="30" height="30" as="geometry" />
        </mxCell>
        <mxCell id="O_iQdXaLC-N60R_olhnX-31" value="Error 11: Display &#39;No suitable recommendations found...&#39;" style="rounded=1;whiteSpace=wrap;html=1;" vertex="1" parent="1">
          <mxGeometry x="1840" y="200" width="200" height="60" as="geometry" />
        </mxCell>
        <mxCell id="O_iQdXaLC-N60R_olhnX-32" value="Error 12: Display &#39;System is currently unavailable...&#39;" style="rounded=1;whiteSpace=wrap;html=1;" vertex="1" parent="1">
          <mxGeometry x="1840" y="895" width="200" height="60" as="geometry" />
        </mxCell>
        <mxCell id="O_iQdXaLC-N60R_olhnX-33" style="ellipse;whiteSpace=wrap;html=1;aspect=fixed;strokeWidth=3;" vertex="1" parent="1">
          <mxGeometry x="2080" y="215" width="30" height="30" as="geometry" />
        </mxCell>
        <mxCell id="O_iQdXaLC-N60R_olhnX-34" style="ellipse;whiteSpace=wrap;html=1;aspect=fixed;strokeWidth=3;" vertex="1" parent="1">
          <mxGeometry x="2080" y="910" width="30" height="30" as="geometry" />
        </mxCell>
        <mxCell id="O_iQdXaLC-N60R_olhnX-35" value="" style="endArrow=classic;html=1;rounded=0;" edge="1" parent="1" source="O_iQdXaLC-N60R_olhnX-7" target="O_iQdXaLC-N60R_olhnX-8" />
        <mxCell id="O_iQdXaLC-N60R_olhnX-36" value="" style="endArrow=classic;html=1;rounded=0;" edge="1" parent="1" source="O_iQdXaLC-N60R_olhnX-8" target="O_iQdXaLC-N60R_olhnX-9">
          <mxGeometry relative="1" as="geometry">
            <mxPoint x="250" y="130" as="sourcePoint" />
            <mxPoint x="250" y="200" as="targetPoint" />
          </mxGeometry>
        </mxCell>
        <mxCell id="O_iQdXaLC-N60R_olhnX-37" value="" style="endArrow=classic;html=1;rounded=0;" edge="1" parent="1" source="O_iQdXaLC-N60R_olhnX-9" target="O_iQdXaLC-N60R_olhnX-10">
          <mxGeometry relative="1" as="geometry">
            <mxPoint x="250" y="260" as="sourcePoint" />
            <mxPoint x="260" y="380" as="targetPoint" />
          </mxGeometry>
        </mxCell>
        <mxCell id="O_iQdXaLC-N60R_olhnX-38" value="[Yes]" style="endArrow=classic;html=1;rounded=0;" edge="1" parent="1" source="O_iQdXaLC-N60R_olhnX-10" target="O_iQdXaLC-N60R_olhnX-11">
          <mxGeometry relative="1" as="geometry">
            <mxPoint x="260" y="460" as="sourcePoint" />
            <mxPoint x="260" y="490" as="targetPoint" />
          </mxGeometry>
        </mxCell>
        <mxCell id="O_iQdXaLC-N60R_olhnX-39" value="" style="endArrow=classic;html=1;rounded=0;" edge="1" parent="1" source="O_iQdXaLC-N60R_olhnX-11" target="O_iQdXaLC-N60R_olhnX-12">
          <mxGeometry relative="1" as="geometry">
            <mxPoint x="260" y="540" as="sourcePoint" />
            <mxPoint x="260" y="620" as="targetPoint" />
          </mxGeometry>
        </mxCell>
        <mxCell id="O_iQdXaLC-N60R_olhnX-40" value="" style="endArrow=classic;html=1;rounded=0;" edge="1" parent="1" source="O_iQdXaLC-N60R_olhnX-12" target="O_iQdXaLC-N60R_olhnX-13" />
        <mxCell id="O_iQdXaLC-N60R_olhnX-41" value="[Yes]" style="endArrow=classic;html=1;rounded=0;" edge="1" parent="1" source="O_iQdXaLC-N60R_olhnX-13" target="O_iQdXaLC-N60R_olhnX-14" />
        <mxCell id="O_iQdXaLC-N60R_olhnX-42" value="[No]" style="endArrow=classic;html=1;rounded=0;" edge="1" parent="1" source="O_iQdXaLC-N60R_olhnX-13" target="O_iQdXaLC-N60R_olhnX-15" />
        <mxCell id="O_iQdXaLC-N60R_olhnX-43" value="" style="endArrow=classic;html=1;rounded=0;" edge="1" parent="1" source="O_iQdXaLC-N60R_olhnX-14" target="O_iQdXaLC-N60R_olhnX-16">
          <mxGeometry relative="1" as="geometry">
            <mxPoint x="740" y="605" as="sourcePoint" />
            <mxPoint x="840" y="405" as="targetPoint" />
            <Array as="points">
              <mxPoint x="840" y="605" />
            </Array>
          </mxGeometry>
        </mxCell>
        <mxCell id="O_iQdXaLC-N60R_olhnX-44" value="" style="endArrow=classic;html=1;rounded=0;" edge="1" parent="1" source="O_iQdXaLC-N60R_olhnX-15" target="O_iQdXaLC-N60R_olhnX-16">
          <mxGeometry relative="1" as="geometry">
            <mxPoint x="740" y="675" as="sourcePoint" />
            <mxPoint x="840" y="405" as="targetPoint" />
            <Array as="points">
              <mxPoint x="840" y="675" />
            </Array>
          </mxGeometry>
        </mxCell>
        <mxCell id="O_iQdXaLC-N60R_olhnX-45" value="[No]" style="endArrow=classic;html=1;rounded=0;" edge="1" parent="1" source="O_iQdXaLC-N60R_olhnX-10" target="O_iQdXaLC-N60R_olhnX-16">
          <mxGeometry relative="1" as="geometry">
            <mxPoint x="320" y="420" as="sourcePoint" />
            <mxPoint x="800" y="405" as="targetPoint" />
          </mxGeometry>
        </mxCell>
        <mxCell id="O_iQdXaLC-N60R_olhnX-46" value="" style="endArrow=classic;html=1;rounded=0;" edge="1" parent="1" source="O_iQdXaLC-N60R_olhnX-16" target="O_iQdXaLC-N60R_olhnX-17" />
        <mxCell id="O_iQdXaLC-N60R_olhnX-47" value="" style="endArrow=classic;html=1;rounded=0;" edge="1" parent="1" source="O_iQdXaLC-N60R_olhnX-17" target="O_iQdXaLC-N60R_olhnX-18" />
        <mxCell id="O_iQdXaLC-N60R_olhnX-48" value="" style="endArrow=classic;html=1;rounded=0;" edge="1" parent="1" source="O_iQdXaLC-N60R_olhnX-18" target="O_iQdXaLC-N60R_olhnX-19">
          <mxGeometry relative="1" as="geometry">
            <mxPoint x="1010" y="530" as="sourcePoint" />
            <mxPoint x="1010" y="770" as="targetPoint" />
          </mxGeometry>
        </mxCell>
        <mxCell id="O_iQdXaLC-N60R_olhnX-49" value="" style="endArrow=classic;html=1;rounded=0;" edge="1" parent="1" source="O_iQdXaLC-N60R_olhnX-19" target="O_iQdXaLC-N60R_olhnX-20" />
        <mxCell id="O_iQdXaLC-N60R_olhnX-50" value="[Yes]" style="endArrow=classic;html=1;rounded=0;" edge="1" parent="1" source="O_iQdXaLC-N60R_olhnX-20" target="O_iQdXaLC-N60R_olhnX-21">
          <mxGeometry relative="1" as="geometry">
            <mxPoint x="1220" y="755" as="sourcePoint" />
            <mxPoint x="1220" y="680" as="targetPoint" />
          </mxGeometry>
        </mxCell>
        <mxCell id="O_iQdXaLC-N60R_olhnX-51" value="" style="endArrow=classic;html=1;rounded=0;" edge="1" parent="1" source="O_iQdXaLC-N60R_olhnX-21" target="O_iQdXaLC-N60R_olhnX-22">
          <mxGeometry relative="1" as="geometry">
            <mxPoint x="1220" y="630" as="sourcePoint" />
            <mxPoint x="1230" y="450" as="targetPoint" />
          </mxGeometry>
        </mxCell>
        <mxCell id="O_iQdXaLC-N60R_olhnX-52" value="" style="endArrow=classic;html=1;rounded=0;" edge="1" parent="1" source="O_iQdXaLC-N60R_olhnX-22" target="O_iQdXaLC-N60R_olhnX-23" />
        <mxCell id="O_iQdXaLC-N60R_olhnX-53" value="" style="endArrow=classic;html=1;rounded=0;" edge="1" parent="1" source="O_iQdXaLC-N60R_olhnX-23" target="O_iQdXaLC-N60R_olhnX-24">
          <mxGeometry relative="1" as="geometry">
            <mxPoint x="1230" y="530" as="sourcePoint" />
            <mxPoint x="1230" y="920" as="targetPoint" />
          </mxGeometry>
        </mxCell>
        <mxCell id="O_iQdXaLC-N60R_olhnX-54" value="" style="endArrow=classic;html=1;rounded=0;" edge="1" parent="1" source="O_iQdXaLC-N60R_olhnX-24" target="O_iQdXaLC-N60R_olhnX-25" />
        <mxCell id="O_iQdXaLC-N60R_olhnX-55" value="[Yes]" style="endArrow=classic;html=1;rounded=0;" edge="1" parent="1" source="O_iQdXaLC-N60R_olhnX-25" target="O_iQdXaLC-N60R_olhnX-26">
          <mxGeometry relative="1" as="geometry">
            <mxPoint x="1440" y="905" as="sourcePoint" />
            <mxPoint x="1440" y="850" as="targetPoint" />
          </mxGeometry>
        </mxCell>
        <mxCell id="O_iQdXaLC-N60R_olhnX-56" value="" style="endArrow=classic;html=1;rounded=0;" edge="1" parent="1" source="O_iQdXaLC-N60R_olhnX-26" target="O_iQdXaLC-N60R_olhnX-27">
          <mxGeometry relative="1" as="geometry">
            <mxPoint x="1440" y="800" as="sourcePoint" />
            <mxPoint x="1650" y="450" as="targetPoint" />
            <Array as="points">
              <mxPoint x="1440" y="420" />
              <mxPoint x="1560" y="420" />
            </Array>
          </mxGeometry>
        </mxCell>
        <mxCell id="O_iQdXaLC-N60R_olhnX-57" value="" style="endArrow=classic;html=1;rounded=0;" edge="1" parent="1" source="O_iQdXaLC-N60R_olhnX-27" target="O_iQdXaLC-N60R_olhnX-28" />
        <mxCell id="O_iQdXaLC-N60R_olhnX-58" value="" style="endArrow=classic;html=1;rounded=0;" edge="1" parent="1" source="O_iQdXaLC-N60R_olhnX-28" target="O_iQdXaLC-N60R_olhnX-29">
          <mxGeometry relative="1" as="geometry">
            <mxPoint x="1650" y="290" as="sourcePoint" />
            <mxPoint x="1650" y="250" as="targetPoint" />
          </mxGeometry>
        </mxCell>
        <mxCell id="O_iQdXaLC-N60R_olhnX-59" value="" style="endArrow=classic;html=1;rounded=0;" edge="1" parent="1" source="O_iQdXaLC-N60R_olhnX-29" target="O_iQdXaLC-N60R_olhnX-30" />
        <mxCell id="O_iQdXaLC-N60R_olhnX-60" value="[No]" style="endArrow=classic;html=1;rounded=0;" edge="1" parent="1" source="O_iQdXaLC-N60R_olhnX-20" target="O_iQdXaLC-N60R_olhnX-31">
          <mxGeometry relative="1" as="geometry">
            <mxPoint x="1280" y="795" as="sourcePoint" />
            <mxPoint x="1840" y="230" as="targetPoint" />
            <Array as="points">
              <mxPoint x="1500" y="795" />
              <mxPoint x="1500" y="230" />
            </Array>
          </mxGeometry>
        </mxCell>
        <mxCell id="O_iQdXaLC-N60R_olhnX-61" value="[No]" style="endArrow=classic;html=1;rounded=0;" edge="1" parent="1" source="O_iQdXaLC-N60R_olhnX-25" target="O_iQdXaLC-N60R_olhnX-32">
          <mxGeometry relative="1" as="geometry">
            <mxPoint x="1500" y="945" as="sourcePoint" />
            <mxPoint x="1840" y="925" as="targetPoint" />
          </mxGeometry>
        </mxCell>
        <mxCell id="O_iQdXaLC-N60R_olhnX-62" value="" style="endArrow=classic;html=1;rounded=0;" edge="1" parent="1" source="O_iQdXaLC-N60R_olhnX-31" target="O_iQdXaLC-N60R_olhnX-33" />
        <mxCell id="O_iQdXaLC-N60R_olhnX-63" value="" style="endArrow=classic;html=1;rounded=0;" edge="1" parent="1" source="O_iQdXaLC-N60R_olhnX-32" target="O_iQdXaLC-N60R_olhnX-34" />
      </root>
    </mxGraphModel>
  </diagram>
</mxfile>
